<?xml version="1.0" encoding="UTF-8"?>
<svg width="26px" height="23px" viewBox="0 0 26 23" version="1.1" xmlns="http://www.w3.org/2000/svg" xmlns:xlink="http://www.w3.org/1999/xlink">
    <title>assets_ios-navigation_home_22pt</title>
    <g id="Symbols" stroke="none" stroke-width="1" fill="none" fill-rule="evenodd">
        <path d="M24.6337891,12.1259766 C25.1386719,12.1259766 25.546875,11.8144531 25.546875,11.2988281 C25.546875,10.9765625 25.4179688,10.7724609 25.2246094,10.5898438 L21.5078125,7.20605469 L21.5078125,0.857421875 C21.5078125,0.384765625 21.1962891,0.083984375 20.734375,0.083984375 L19.3271484,0.083984375 C18.8544922,0.083984375 18.5429688,0.384765625 18.5429688,0.857421875 L18.5429688,4.50976562 L14.2890625,0.62109375 C13.9023438,0.266601562 13.4511719,0.0947265625 13,0.0947265625 C12.5488281,0.0947265625 12.0976562,0.266601562 11.7109375,0.62109375 L0.775390625,10.5898438 C0.58203125,10.7724609 0.453125,10.9765625 0.453125,11.2988281 C0.453125,11.8144531 0.861328125,12.1259766 1.36621094,12.1259766 C1.66699219,12.1259766 1.92480469,11.9755859 2.13964844,11.7607422 L12.6240234,2.2109375 C12.7421875,2.09277344 12.8710938,2.04980469 13,2.04980469 C13.1396484,2.04980469 13.2578125,2.09277344 13.3867188,2.2109375 L23.8603516,11.7607422 C24.0751953,11.9755859 24.3222656,12.1259766 24.6337891,12.1259766 Z M10.2929688,22.6748047 L10.2929688,15.0371094 C10.2929688,14.5429688 10.6152344,14.2207031 11.109375,14.2207031 L14.9013672,14.2207031 C15.40625,14.2207031 15.7177734,14.5429688 15.7177734,15.0371094 L15.7177734,22.6748047 L20.0576172,22.6748047 C21.5722656,22.6748047 22.4746094,21.8046875 22.4746094,20.3115234 L22.4746094,12.4482422 L13.34375,4.23046875 C13.2363281,4.12304688 13.0966797,4.06933594 12.9785156,4.06933594 C12.8603516,4.06933594 12.7314453,4.12304688 12.6132812,4.24121094 L3.52539062,12.5019531 L3.52539062,20.3115234 C3.52539062,21.8046875 4.42773438,22.6748047 5.94238281,22.6748047 L10.2929688,22.6748047 Z" id="assets_ios-navigation_home_22pt" fill="#000" fill-rule="nonzero"></path>
    </g>
</svg>