<svg width="23px" height="23px" viewBox="0 0 23 23" version="1.1" xmlns="http://www.w3.org/2000/svg" xmlns:xlink="http://www.w3.org/1999/xlink">
    <title>Search</title>
    <g id="Symbols" stroke="none" stroke-width="1" fill="none" fill-rule="evenodd">
        <path d="M11.5,22.2011719 C17.4941406,22.2011719 22.4570312,17.2382812 22.4570312,11.2441406 C22.4570312,5.26074219 17.4833984,0.287109375 11.4892578,0.287109375 C5.50585938,0.287109375 0.54296875,5.26074219 0.54296875,11.2441406 C0.54296875,17.2382812 5.51660156,22.2011719 11.5,22.2011719 Z M15.9472656,16.4326172 C15.7001953,16.4326172 15.5068359,16.3574219 15.3027344,16.1533203 L12.6494141,13.5 C11.9941406,13.9296875 11.2207031,14.1875 10.3828125,14.1875 C8.10546875,14.1875 6.24707031,12.3291016 6.24707031,10.0517578 C6.24707031,7.78515625 8.10546875,5.92675781 10.3828125,5.92675781 C12.6601562,5.92675781 14.5078125,7.78515625 14.5078125,10.0517578 C14.5078125,10.9433594 14.2285156,11.7597656 13.7451172,12.4257812 L16.4306641,15.1113281 C16.5810547,15.2617188 16.6777344,15.4658203 16.6777344,15.6699219 C16.6777344,16.1210938 16.3769531,16.4326172 15.9472656,16.4326172 Z M10.3828125,12.9951172 C11.9833984,12.9951172 13.3046875,11.6630859 13.3046875,10.0517578 C13.3046875,8.46191406 11.9833984,7.12988281 10.3828125,7.12988281 C8.77148438,7.12988281 7.43945312,8.46191406 7.43945312,10.0517578 C7.43945312,11.6630859 8.77148438,12.9951172 10.3828125,12.9951172 Z" id="Search" fill="#000" fill-rule="nonzero"></path>
    </g>
</svg>