<?xml version="1.0" encoding="UTF-8"?>
<svg width="16px" height="20px" viewBox="0 0 16 20" version="1.1" xmlns="http://www.w3.org/2000/svg" xmlns:xlink="http://www.w3.org/1999/xlink">
    <title>assets_ios-icon_share_18pt_outline</title>
    <g id="Symbols" stroke="none" stroke-width="1" fill="none" fill-rule="evenodd">
        <path d="M8.00439453,13.0449219 C8.38232422,13.0449219 8.69873047,12.7285156 8.69873047,12.359375 L8.69873047,3.33300781 L8.64599609,2.01464844 L9.23486328,2.63867188 L10.5708008,4.0625 C10.6938477,4.203125 10.878418,4.2734375 11.0454102,4.2734375 C11.4057617,4.2734375 11.6870117,4.00976562 11.6870117,3.64941406 C11.6870117,3.46484375 11.6079102,3.32421875 11.4760742,3.19238281 L8.50537109,0.327148438 C8.32958984,0.151367188 8.18017578,0.08984375 8.00439453,0.08984375 C7.81982422,0.08984375 7.67041016,0.151367188 7.49462891,0.327148438 L4.52392578,3.19238281 C4.39208984,3.32421875 4.31298828,3.46484375 4.31298828,3.64941406 C4.31298828,4.00976562 4.57666016,4.2734375 4.94580078,4.2734375 C5.11279297,4.2734375 5.30615234,4.203125 5.42919922,4.0625 L6.76513672,2.63867188 L7.35400391,2.01464844 L7.30126953,3.33300781 L7.30126953,12.359375 C7.30126953,12.7285156 7.62646484,13.0449219 8.00439453,13.0449219 Z M13.0405273,19.9267578 C14.8774414,19.9267578 15.800293,19.0126953 15.800293,17.2021484 L15.800293,8.43066406 C15.800293,6.62011719 14.8774414,5.70605469 13.0405273,5.70605469 L10.5883789,5.70605469 L10.5883789,7.12109375 L13.0141602,7.12109375 C13.8842773,7.12109375 14.3852539,7.59570312 14.3852539,8.50976562 L14.3852539,17.1230469 C14.3852539,18.0371094 13.8842773,18.5117188 13.0141602,18.5117188 L2.97705078,18.5117188 C2.09814453,18.5117188 1.61474609,18.0371094 1.61474609,17.1230469 L1.61474609,8.50976562 C1.61474609,7.59570312 2.09814453,7.12109375 2.97705078,7.12109375 L5.41162109,7.12109375 L5.41162109,5.70605469 L2.95947266,5.70605469 C1.12255859,5.70605469 0.199707031,6.62011719 0.199707031,8.43066406 L0.199707031,17.2021484 C0.199707031,19.0126953 1.12255859,19.9267578 2.95947266,19.9267578 L13.0405273,19.9267578 Z" id="assets_ios-icon_share_18pt_outline" fill="#000" fill-rule="nonzero"></path>
    </g>
</svg>